<mxfile host="app.diagrams.net" modified="2022-12-07T12:39:03.284Z" agent="5.0 (Windows NT 10.0; Win64; x64) AppleWebKit/537.36 (KHTML, like Gecko) Chrome/107.0.0.0 Safari/537.36" etag="EIE7YipijGVBXEydxHJF" version="20.6.0" type="github">
  <diagram id="kgpKYQtTHZ0yAKxKKP6v" name="Page-1">
    <mxGraphModel dx="868" dy="435" grid="1" gridSize="10" guides="1" tooltips="1" connect="1" arrows="1" fold="1" page="1" pageScale="1" pageWidth="850" pageHeight="1100" math="0" shadow="0">
      <root>
        <mxCell id="0" />
        <mxCell id="1" parent="0" />
        <mxCell id="3nuBFxr9cyL0pnOWT2aG-1" value="Admin" style="shape=umlLifeline;perimeter=lifelinePerimeter;container=1;collapsible=0;recursiveResize=0;rounded=0;shadow=0;strokeWidth=1;" parent="1" vertex="1">
          <mxGeometry x="120" y="80" width="100" height="400" as="geometry" />
        </mxCell>
        <mxCell id="3nuBFxr9cyL0pnOWT2aG-2" value="" style="points=[];perimeter=orthogonalPerimeter;rounded=0;shadow=0;strokeWidth=1;" parent="3nuBFxr9cyL0pnOWT2aG-1" vertex="1">
          <mxGeometry x="45" y="70" width="10" height="290" as="geometry" />
        </mxCell>
        <mxCell id="3nuBFxr9cyL0pnOWT2aG-5" value="S RDF" style="shape=umlLifeline;perimeter=lifelinePerimeter;container=1;collapsible=0;recursiveResize=0;rounded=0;shadow=0;strokeWidth=1;" parent="1" vertex="1">
          <mxGeometry x="430" y="80" width="100" height="400" as="geometry" />
        </mxCell>
        <mxCell id="3nuBFxr9cyL0pnOWT2aG-6" value="" style="points=[];perimeter=orthogonalPerimeter;rounded=0;shadow=0;strokeWidth=1;" parent="3nuBFxr9cyL0pnOWT2aG-5" vertex="1">
          <mxGeometry x="45" y="80" width="10" height="280" as="geometry" />
        </mxCell>
        <mxCell id="fMcNaKXimsunp_zI0quN-5" value="controle de la webcam" style="verticalAlign=bottom;endArrow=block;shadow=0;strokeWidth=1;" edge="1" parent="3nuBFxr9cyL0pnOWT2aG-5" target="3nuBFxr9cyL0pnOWT2aG-5">
          <mxGeometry x="0.2546" y="28" relative="1" as="geometry">
            <mxPoint x="55" y="80.00000000000011" as="sourcePoint" />
            <mxPoint x="110" y="130" as="targetPoint" />
            <Array as="points">
              <mxPoint x="100" y="80" />
              <mxPoint x="100" y="120" />
            </Array>
            <mxPoint x="20" y="-8" as="offset" />
          </mxGeometry>
        </mxCell>
        <mxCell id="3nuBFxr9cyL0pnOWT2aG-7" value="détection de la forme et affichage &#xa;du taux de précision" style="verticalAlign=bottom;endArrow=open;dashed=1;endSize=8;exitX=1;exitY=0.996;shadow=0;strokeWidth=1;exitDx=0;exitDy=0;exitPerimeter=0;entryX=-0.3;entryY=1.004;entryDx=0;entryDy=0;entryPerimeter=0;" parent="1" source="3nuBFxr9cyL0pnOWT2aG-6" target="fMcNaKXimsunp_zI0quN-2" edge="1">
          <mxGeometry relative="1" as="geometry">
            <mxPoint x="740" y="425" as="targetPoint" />
          </mxGeometry>
        </mxCell>
        <mxCell id="3nuBFxr9cyL0pnOWT2aG-8" value="démarrage du système" style="verticalAlign=bottom;endArrow=block;entryX=0;entryY=0;shadow=0;strokeWidth=1;" parent="1" source="3nuBFxr9cyL0pnOWT2aG-2" target="3nuBFxr9cyL0pnOWT2aG-6" edge="1">
          <mxGeometry relative="1" as="geometry">
            <mxPoint x="275" y="160" as="sourcePoint" />
          </mxGeometry>
        </mxCell>
        <mxCell id="3nuBFxr9cyL0pnOWT2aG-9" value="lancement de l&#39;interface" style="verticalAlign=bottom;endArrow=block;shadow=0;strokeWidth=1;" parent="1" target="3nuBFxr9cyL0pnOWT2aG-2" edge="1">
          <mxGeometry relative="1" as="geometry">
            <mxPoint x="475" y="208" as="sourcePoint" />
            <mxPoint x="180" y="208" as="targetPoint" />
          </mxGeometry>
        </mxCell>
        <mxCell id="fMcNaKXimsunp_zI0quN-1" value="Utilisateur" style="shape=umlLifeline;perimeter=lifelinePerimeter;container=1;collapsible=0;recursiveResize=0;rounded=0;shadow=0;strokeWidth=1;size=50;" vertex="1" parent="1">
          <mxGeometry x="700" y="80" width="100" height="400" as="geometry" />
        </mxCell>
        <mxCell id="fMcNaKXimsunp_zI0quN-2" value="" style="points=[];perimeter=orthogonalPerimeter;rounded=0;shadow=0;strokeWidth=1;" vertex="1" parent="fMcNaKXimsunp_zI0quN-1">
          <mxGeometry x="45" y="80" width="10" height="280" as="geometry" />
        </mxCell>
        <mxCell id="fMcNaKXimsunp_zI0quN-6" value="Voir le cas ou la webcam déjà en cours d&#39;utilisation ou non" style="shape=note;whiteSpace=wrap;html=1;backgroundOutline=1;darkOpacity=0.05;" vertex="1" parent="1">
          <mxGeometry x="533" y="140" width="170" height="60" as="geometry" />
        </mxCell>
        <mxCell id="fMcNaKXimsunp_zI0quN-7" value="demande de controle" style="verticalAlign=bottom;endArrow=block;shadow=0;strokeWidth=1;" edge="1" parent="1" target="fMcNaKXimsunp_zI0quN-1">
          <mxGeometry relative="1" as="geometry">
            <mxPoint x="176" y="239.0000000000001" as="sourcePoint" />
            <mxPoint x="476" y="239.0000000000001" as="targetPoint" />
          </mxGeometry>
        </mxCell>
        <mxCell id="fMcNaKXimsunp_zI0quN-8" value="présentation de la face" style="verticalAlign=bottom;endArrow=block;shadow=0;strokeWidth=1;entryX=1.1;entryY=0.694;entryDx=0;entryDy=0;entryPerimeter=0;exitX=0.2;exitY=0.694;exitDx=0;exitDy=0;exitPerimeter=0;" edge="1" parent="1">
          <mxGeometry relative="1" as="geometry">
            <mxPoint x="747" y="281.86" as="sourcePoint" />
            <mxPoint x="486" y="281.86" as="targetPoint" />
          </mxGeometry>
        </mxCell>
        <mxCell id="fMcNaKXimsunp_zI0quN-10" value="Traitement des images" style="verticalAlign=bottom;endArrow=block;shadow=0;strokeWidth=1;" edge="1" parent="1">
          <mxGeometry x="0.2546" y="28" relative="1" as="geometry">
            <mxPoint x="486" y="334.0000000000001" as="sourcePoint" />
            <mxPoint x="480.5" y="374" as="targetPoint" />
            <Array as="points">
              <mxPoint x="531" y="334" />
              <mxPoint x="531" y="374" />
            </Array>
            <mxPoint x="20" y="-8" as="offset" />
          </mxGeometry>
        </mxCell>
        <mxCell id="fMcNaKXimsunp_zI0quN-11" value="Traitement des images en temps réel avec l&#39;api de détection des objet et opencv" style="shape=note;whiteSpace=wrap;html=1;backgroundOutline=1;darkOpacity=0.05;" vertex="1" parent="1">
          <mxGeometry x="534" y="314" width="170" height="60" as="geometry" />
        </mxCell>
      </root>
    </mxGraphModel>
  </diagram>
</mxfile>
